<svg width="32" height="32" viewBox="0 0 32 32" fill="none" xmlns="http://www.w3.org/2000/svg">
<path d="M12.2899 19.29C12.1962 19.383 12.1218 19.4936 12.071 19.6154C12.0203 19.7373 11.9941 19.868 11.9941 20C11.9941 20.132 12.0203 20.2627 12.071 20.3846C12.1218 20.5064 12.1962 20.617 12.2899 20.71L15.2899 23.71C15.3829 23.8037 15.4935 23.8781 15.6154 23.9289C15.7372 23.9797 15.8679 24.0058 15.9999 24.0058C16.132 24.0058 16.2627 23.9797 16.3845 23.9289C16.5064 23.8781 16.617 23.8037 16.7099 23.71L19.7099 20.71C19.8982 20.5217 20.004 20.2663 20.004 20C20.004 19.7337 19.8982 19.4783 19.7099 19.29C19.5216 19.1017 19.2662 18.9959 18.9999 18.9959C18.7336 18.9959 18.4782 19.1017 18.2899 19.29L16.9999 20.59V9C16.9999 8.73478 16.8946 8.48043 16.707 8.29289C16.5195 8.10536 16.2652 8 15.9999 8C15.7347 8 15.4804 8.10536 15.2928 8.29289C15.1053 8.48043 14.9999 8.73478 14.9999 9V20.59L13.7099 19.29C13.617 19.1963 13.5064 19.1219 13.3845 19.0711C13.2627 19.0203 13.132 18.9942 12.9999 18.9942C12.8679 18.9942 12.7372 19.0203 12.6154 19.0711C12.4935 19.1219 12.3829 19.1963 12.2899 19.29Z" fill="#FAFCFC"/>
<circle cx="16" cy="16" r="15" stroke="#FAFCFC" stroke-width="2"/>
</svg>
