<svg width="21" height="20" viewBox="0 0 21 20" fill="none" xmlns="http://www.w3.org/2000/svg">
<path d="M20.9093 7.56543C20.8433 7.37414 20.7232 7.20612 20.5635 7.08175C20.4039 6.95738 20.2116 6.882 20.01 6.86475L14.0593 5.99673L11.3926 0.589946C11.3069 0.413132 11.1732 0.264014 11.0068 0.159676C10.8403 0.0553385 10.6478 0 10.4513 0C10.2549 0 10.0624 0.0553385 9.89593 0.159676C9.72946 0.264014 9.59575 0.413132 9.51012 0.589946L6.84333 5.98627L0.892726 6.86475C0.699172 6.89226 0.517205 6.97347 0.367473 7.09917C0.217742 7.22487 0.106243 7.39002 0.045628 7.57589C-0.00985692 7.75752 -0.014836 7.95083 0.031225 8.13507C0.0772861 8.31932 0.172648 8.48754 0.307078 8.62169L4.62623 12.8049L3.58043 18.745C3.5431 18.9411 3.56265 19.1437 3.63677 19.3291C3.7109 19.5144 3.8365 19.6746 3.99875 19.7908C4.1569 19.9039 4.34342 19.9706 4.53739 19.9836C4.73136 19.9965 4.92509 19.9551 5.09684 19.864L10.4513 17.0718L15.7849 19.8745C15.9317 19.9573 16.0975 20.0005 16.266 20C16.4875 20.0008 16.7036 19.9312 16.883 19.8013C17.0453 19.6851 17.1709 19.5248 17.245 19.3395C17.3191 19.1542 17.3387 18.9516 17.3013 18.7555L16.2555 12.8153L20.5747 8.63215C20.7257 8.50422 20.8373 8.33609 20.8965 8.14726C20.9558 7.95844 20.9602 7.75668 20.9093 7.56543ZM14.4777 11.7486C14.355 11.8673 14.2633 12.0141 14.2104 12.1763C14.1575 12.3386 14.1452 12.5113 14.1744 12.6794L14.9274 17.0613L10.9952 14.9697C10.8438 14.8891 10.6751 14.847 10.5036 14.847C10.3322 14.847 10.1634 14.8891 10.0121 14.9697L6.0799 17.0613L6.83287 12.6794C6.86209 12.5113 6.84972 12.3386 6.79686 12.1763C6.74399 12.0141 6.65224 11.8673 6.52959 11.7486L3.39219 8.61123L7.79501 7.97329C7.96442 7.94973 8.12548 7.88497 8.26405 7.78469C8.40262 7.68441 8.51447 7.55167 8.58982 7.3981L10.4513 3.41361L12.4174 7.40856C12.4928 7.56213 12.6046 7.69486 12.7432 7.79514C12.8818 7.89542 13.0428 7.96019 13.2123 7.98375L17.6151 8.62169L14.4777 11.7486Z" fill="#AFBCC6" fill-opacity="0.5"/>
</svg>
