<svg width="26" height="20" viewBox="0 0 26 20" fill="none" xmlns="http://www.w3.org/2000/svg">
<path d="M13.2941 10.2588C13.9219 9.71545 14.4254 9.04339 14.7704 8.28826C15.1155 7.53313 15.2941 6.7126 15.2941 5.88235C15.2941 4.32226 14.6744 2.82606 13.5712 1.7229C12.4681 0.619746 10.9719 2.10484e-07 9.41176 2.10484e-07C7.85167 2.10484e-07 6.35547 0.619746 5.25231 1.7229C4.14916 2.82606 3.52941 4.32226 3.52941 5.88235C3.5294 6.7126 3.708 7.53313 4.05309 8.28826C4.39818 9.04339 4.90167 9.71545 5.52941 10.2588C3.88252 11.0046 2.48525 12.2089 1.50468 13.7277C0.524112 15.2465 0.00173159 17.0157 0 18.8235C0 19.1355 0.123949 19.4348 0.34458 19.6554C0.565211 19.8761 0.864451 20 1.17647 20C1.48849 20 1.78773 19.8761 2.00836 19.6554C2.22899 19.4348 2.35294 19.1355 2.35294 18.8235C2.35294 16.9514 3.09664 15.156 4.42042 13.8322C5.74421 12.5084 7.53965 11.7647 9.41176 11.7647C11.2839 11.7647 13.0793 12.5084 14.4031 13.8322C15.7269 15.156 16.4706 16.9514 16.4706 18.8235C16.4706 19.1355 16.5945 19.4348 16.8152 19.6554C17.0358 19.8761 17.335 20 17.6471 20C17.9591 20 18.2583 19.8761 18.4789 19.6554C18.6996 19.4348 18.8235 19.1355 18.8235 18.8235C18.8218 17.0157 18.2994 15.2465 17.3188 13.7277C16.3383 12.2089 14.941 11.0046 13.2941 10.2588ZM9.41176 9.41177C8.71371 9.41177 8.03134 9.20477 7.45093 8.81695C6.87052 8.42913 6.41815 7.87792 6.15101 7.233C5.88388 6.58809 5.81399 5.87844 5.95017 5.1938C6.08635 4.50916 6.4225 3.88028 6.91609 3.38668C7.40969 2.89309 8.03857 2.55694 8.72321 2.42076C9.40785 2.28458 10.1175 2.35447 10.7624 2.6216C11.4073 2.88874 11.9585 3.34111 12.3464 3.92152C12.7342 4.50193 12.9412 5.1843 12.9412 5.88235C12.9412 6.81841 12.5693 7.71613 11.9074 8.37803C11.2455 9.03992 10.3478 9.41177 9.41176 9.41177ZM20.8706 9.78824C21.6235 8.94039 22.1153 7.89301 22.2868 6.77216C22.4583 5.65132 22.3023 4.50479 21.8374 3.47059C21.3725 2.43638 20.6186 1.55858 19.6664 0.94285C18.7143 0.327118 17.6045 -0.000303059 16.4706 2.10484e-07C16.1586 2.10484e-07 15.8593 0.123949 15.6387 0.34458C15.4181 0.565211 15.2941 0.864451 15.2941 1.17647C15.2941 1.48849 15.4181 1.78773 15.6387 2.00836C15.8593 2.22899 16.1586 2.35294 16.4706 2.35294C17.4066 2.35294 18.3044 2.72479 18.9663 3.38668C19.6282 4.04858 20 4.9463 20 5.88235C19.9983 6.50028 19.8345 7.10695 19.5248 7.64167C19.2151 8.1764 18.7704 8.62045 18.2353 8.92941C18.0609 9.03002 17.9152 9.17372 17.8122 9.34675C17.7092 9.51978 17.6523 9.71635 17.6471 9.91765C17.6421 10.1174 17.6882 10.3151 17.7808 10.4921C17.8734 10.6691 18.0096 10.8196 18.1765 10.9294L18.6353 11.2353L18.7882 11.3176C20.2063 11.9903 21.4027 13.0541 22.2364 14.3839C23.0702 15.7137 23.5065 17.254 23.4941 18.8235C23.4941 19.1355 23.6181 19.4348 23.8387 19.6554C24.0593 19.8761 24.3586 20 24.6706 20C24.9826 20 25.2818 19.8761 25.5025 19.6554C25.7231 19.4348 25.8471 19.1355 25.8471 18.8235C25.8567 17.0182 25.4045 15.2403 24.5335 13.6589C23.6625 12.0775 22.4016 10.7451 20.8706 9.78824Z" fill="#AFBCC6" fill-opacity="0.5"/>
</svg>
