<svg width="15" height="20" viewBox="0 0 15 20" fill="none" xmlns="http://www.w3.org/2000/svg">
<path d="M7.27273 12.7273C8.23715 12.7273 9.16207 12.3442 9.84402 11.6622C10.526 10.9803 10.9091 10.0553 10.9091 9.09091V3.63636C10.9091 2.67194 10.526 1.74702 9.84402 1.06507C9.16207 0.383116 8.23715 0 7.27273 0C6.3083 0 5.38338 0.383116 4.70143 1.06507C4.01948 1.74702 3.63636 2.67194 3.63636 3.63636V9.09091C3.63636 10.0553 4.01948 10.9803 4.70143 11.6622C5.38338 12.3442 6.3083 12.7273 7.27273 12.7273ZM5.45455 3.63636C5.45455 3.15415 5.6461 2.69169 5.98708 2.35071C6.32805 2.00974 6.79052 1.81818 7.27273 1.81818C7.75494 1.81818 8.2174 2.00974 8.55838 2.35071C8.89935 2.69169 9.09091 3.15415 9.09091 3.63636V9.09091C9.09091 9.57312 8.89935 10.0356 8.55838 10.3766C8.2174 10.7175 7.75494 10.9091 7.27273 10.9091C6.79052 10.9091 6.32805 10.7175 5.98708 10.3766C5.6461 10.0356 5.45455 9.57312 5.45455 9.09091V3.63636ZM14.5455 9.09091C14.5455 8.8498 14.4497 8.61857 14.2792 8.44808C14.1087 8.2776 13.8775 8.18182 13.6364 8.18182C13.3953 8.18182 13.164 8.2776 12.9935 8.44808C12.8231 8.61857 12.7273 8.8498 12.7273 9.09091C12.7273 10.5375 12.1526 11.9249 11.1297 12.9479C10.1067 13.9708 8.71936 14.5455 7.27273 14.5455C5.82609 14.5455 4.43871 13.9708 3.41578 12.9479C2.39286 11.9249 1.81818 10.5375 1.81818 9.09091C1.81818 8.8498 1.7224 8.61857 1.55192 8.44808C1.38143 8.2776 1.1502 8.18182 0.909091 8.18182C0.667985 8.18182 0.436754 8.2776 0.266267 8.44808C0.0957791 8.61857 0 8.8498 0 9.09091C0.00160527 10.8612 0.648838 12.5701 1.82036 13.8972C2.99188 15.2244 4.60725 16.0787 6.36364 16.3V18.1818H4.54545C4.30435 18.1818 4.07312 18.2776 3.90263 18.4481C3.73214 18.6186 3.63636 18.8498 3.63636 19.0909C3.63636 19.332 3.73214 19.5632 3.90263 19.7337C4.07312 19.9042 4.30435 20 4.54545 20H10C10.2411 20 10.4723 19.9042 10.6428 19.7337C10.8133 19.5632 10.9091 19.332 10.9091 19.0909C10.9091 18.8498 10.8133 18.6186 10.6428 18.4481C10.4723 18.2776 10.2411 18.1818 10 18.1818H8.18182V16.3C9.9382 16.0787 11.5536 15.2244 12.7251 13.8972C13.8966 12.5701 14.5438 10.8612 14.5455 9.09091Z" fill="#6588DE"/>
</svg>
