<svg width="12" height="12" viewBox="0 0 12 12" fill="none" xmlns="http://www.w3.org/2000/svg">
<path d="M10.5126 6.59988C10.3802 6.59988 10.2417 6.55773 10.1092 6.52762C9.84092 6.46851 9.57728 6.39002 9.32036 6.29278C9.04101 6.19115 8.73394 6.19643 8.45825 6.3076C8.18256 6.41876 7.95772 6.62796 7.827 6.89494L7.69452 7.16592C7.10802 6.83965 6.56907 6.43443 6.09277 5.96159C5.61994 5.48529 5.21471 4.94635 4.88845 4.35984L5.14136 4.19124C5.40834 4.06052 5.61754 3.83568 5.7287 3.55998C5.83987 3.28429 5.84515 2.97723 5.74352 2.69788C5.64791 2.4404 5.56946 2.17688 5.50868 1.90904C5.47857 1.77657 5.45448 1.63807 5.43642 1.49957C5.36329 1.07542 5.14113 0.691317 4.80994 0.416429C4.47875 0.141541 4.06029 -0.00606608 3.62993 0.000191068H1.82345C1.56393 -0.0022456 1.30694 0.0512625 1.06997 0.157073C0.832992 0.262883 0.621598 0.41851 0.450175 0.613361C0.278751 0.808213 0.151324 1.03771 0.076568 1.28624C0.00181172 1.53476 -0.0185186 1.79647 0.0169612 2.05356C0.337756 4.57625 1.48987 6.92016 3.29131 8.71506C5.09275 10.51 7.44084 11.6535 9.96467 11.9651H10.1935C10.6375 11.9658 11.0663 11.8029 11.3978 11.5075C11.5883 11.3371 11.7405 11.1282 11.8443 10.8947C11.9481 10.6611 12.0012 10.4082 12 10.1526V8.34615C11.9926 7.92788 11.8403 7.52514 11.569 7.20666C11.2978 6.88819 10.9244 6.67372 10.5126 6.59988ZM10.8137 10.2129C10.8136 10.2984 10.7953 10.3828 10.76 10.4607C10.7247 10.5386 10.6732 10.608 10.609 10.6645C10.5419 10.7229 10.4632 10.7665 10.3782 10.7924C10.2931 10.8184 10.2035 10.8261 10.1152 10.815C7.86006 10.5259 5.76534 9.49416 4.16147 7.88266C2.5576 6.27116 1.53586 4.17157 1.25741 1.91507C1.24783 1.82686 1.25623 1.73763 1.2821 1.65276C1.30798 1.56789 1.35079 1.48915 1.40796 1.42129C1.46438 1.35706 1.53384 1.30558 1.61171 1.27028C1.68958 1.23498 1.77408 1.21667 1.85958 1.21656H3.66606C3.80609 1.21344 3.94283 1.25924 4.05274 1.34607C4.16264 1.43289 4.23884 1.55532 4.26822 1.69227C4.29231 1.85686 4.32242 2.01944 4.35855 2.18002C4.42811 2.49744 4.52069 2.80938 4.63554 3.11337L3.79252 3.50477C3.72043 3.53784 3.6556 3.58483 3.60173 3.64303C3.54785 3.70122 3.50601 3.76949 3.47859 3.84391C3.45117 3.91832 3.43873 3.99742 3.44197 4.07666C3.4452 4.1559 3.46406 4.23372 3.49746 4.30565C4.36409 6.16196 5.85627 7.65415 7.71259 8.52078C7.85919 8.58101 8.02363 8.58101 8.17023 8.52078C8.24533 8.49392 8.31434 8.45241 8.37326 8.39865C8.43218 8.3449 8.47984 8.27998 8.51346 8.20765L8.8868 7.36463C9.1981 7.47596 9.51581 7.56845 9.83822 7.64162C9.9988 7.67775 10.1614 7.70786 10.326 7.73195C10.4629 7.76133 10.5853 7.83753 10.6722 7.94743C10.759 8.05734 10.8048 8.19408 10.8017 8.33411L10.8137 10.2129Z" fill="#F2F6F7"/>
</svg>
